<svg width="55" height="53" viewBox="0 0 55 53" fill="none" xmlns="http://www.w3.org/2000/svg">
<path d="M55 8.83573V53H0V8.83573H17.1875V4.4193C17.1875 3.79824 17.277 3.22319 17.4561 2.69414C17.6351 2.16508 17.8768 1.70504 18.1812 1.314C18.4855 0.922964 18.8525 0.600933 19.2822 0.347909C19.7119 0.0948842 20.1595 -0.0201269 20.625 0.00287528H34.375C34.8584 0.00287528 35.306 0.117886 35.7178 0.347909C36.1296 0.577931 36.4876 0.888461 36.792 1.2795C37.0964 1.67054 37.347 2.14208 37.5439 2.69414C37.7409 3.24619 37.8304 3.82124 37.8125 4.4193V8.83573H55ZM20.625 8.83573H34.375V4.4193H20.625V8.83573ZM3.4375 13.2522V19.6353L20.625 30.6418V26.5014H34.375V30.6418L51.5625 19.6353V13.2522H3.4375ZM24.0625 30.9179V35.3343H30.9375V30.9179H24.0625ZM51.5625 48.5836V24.5347L34.375 35.6103V39.7507H20.625V35.6103L3.4375 24.5347V48.5836H51.5625Z" fill="#E1CEB5"/>
</svg>
